<svg version="1.1" id="Laag_1" xmlns="http://www.w3.org/2000/svg" x="0" y="0" viewBox="0 0 1583.3 1346" xml:space="preserve"><style>.st18{fill:#fffffe}.st19{fill:#ebc757}</style><radialGradient id="SVGID_1_" cx="700.686" cy="952.336" r="103.986" fx="164.192" fy="951.159" gradientTransform="matrix(11.2542 0 0 -11.2542 -1380.715 11344.853)" gradientUnits="userSpaceOnUse"><stop offset="0" stop-color="#faf192"/><stop offset=".192" stop-color="#fbef7f"/><stop offset=".419" stop-color="#fbed60"/><stop offset=".477" stop-color="#fbde55"/><stop offset=".56" stop-color="#facb48"/><stop offset=".648" stop-color="#f9bb3f"/><stop offset=".744" stop-color="#f8b038"/><stop offset=".852" stop-color="#f7a934"/><stop offset="1" stop-color="#f7a633"/></radialGradient><circle cx="765.7" cy="673" r="673" fill="url(#SVGID_1_)"/><linearGradient id="SVGID_2_" gradientUnits="userSpaceOnUse" x1="129.821" y1="910.257" x2="157.954" y2="910.257" gradientTransform="matrix(11.2542 0 0 -11.2542 -1380.715 11344.853)"><stop offset=".15" stop-color="#b18516"/><stop offset=".312" stop-color="#fff487"/><stop offset=".403" stop-color="#e0c253"/><stop offset=".509" stop-color="#bd9526"/><stop offset=".563" stop-color="#b18516"/></linearGradient><path d="M396.6 1240.2s-285.9-24.8-316.2-178.9l24.8-100.2h41.6c-.1 1.1 76.4 190.2 249.8 279.1z" fill="url(#SVGID_2_)"/><linearGradient id="SVGID_3_" gradientUnits="userSpaceOnUse" x1="229.165" y1="987.238" x2="250.237" y2="987.238" gradientTransform="matrix(11.2542 0 0 -11.2542 -1380.715 11344.853)"><stop offset="0" stop-color="#cebd7b"/><stop offset=".311" stop-color="#b18516"/><stop offset=".355" stop-color="#b3881b"/><stop offset=".407" stop-color="#b99128"/><stop offset=".462" stop-color="#c3a03e"/><stop offset=".519" stop-color="#d2b65f"/><stop offset=".579" stop-color="#e6d48b"/><stop offset=".613" stop-color="#f3e9a9"/><stop offset=".621" stop-color="#f0e5a3"/><stop offset=".725" stop-color="#d0b25a"/><stop offset=".8" stop-color="#bc9530"/><stop offset=".839" stop-color="#b58b21"/></linearGradient><path d="M1197.9 139.6s131.7 122.7 147.4 175.6c15.8 52.9 90-61.9 90-61.9s-92.3-110.4-237.4-113.7z" fill="url(#SVGID_3_)"/><linearGradient id="SVGID_4_" gradientUnits="userSpaceOnUse" x1="122.722" y1="938.481" x2="255.163" y2="969.142" gradientTransform="matrix(11.2542 0 0 -11.2542 -1380.715 11344.853)"><stop offset="0" stop-color="#8a1710"/><stop offset=".001" stop-color="#8a1710"/><stop offset=".064" stop-color="#a41913"/><stop offset=".131" stop-color="#bb1814"/><stop offset=".203" stop-color="#cd1714"/><stop offset=".284" stop-color="#da1514"/><stop offset=".377" stop-color="#e11413"/><stop offset=".516" stop-color="#e41313"/><stop offset=".588" stop-color="#dd1513"/><stop offset=".701" stop-color="#ca1714"/><stop offset=".841" stop-color="#ac1813"/><stop offset="1" stop-color="#85160e"/></linearGradient><path d="M1340.8 318.5c10.1 1.1 19.1-1.1 24.8-10.1h5.6c31.5-13.5 49.5-38.3 59.6-69.8 21.4 18 32.6 41.6 45 65.3 30.4 56.3 48.4 115.9 65.3 177.8 29.3 113.7 38.3 228.5 41.6 344.4 0 6.8 2.3 13.5-2.3 19.1-34.9 36-76.5 61.9-122.7 78.8-55.1 20.3-113.7 28.1-172.2 29.3-59.6 1.1-119.3 0-178.9-6.8-25.9-2.3-56.3-9-78.8 14.6-1.1 1.1-3.4 1.1-4.5 1.1-37.1 9-74.3 3.4-112.5-1.1 7.9-1.1 16.9-1.1 24.8-1.1 79.9-1.1 129.4-40.5 148.6-118.2 20.3-79.9 36-160.9 51.8-242 2.3-13.5 10.1-28.1 2.3-42.8 1.1-3.4 1.1-6.8 2.3-9 7.9-5.6 5.6-13.5 4.5-21.4l16.9-70.9c2.3-11.3 6.8-22.5 7.9-34.9 2.3-12.4 0-21.4-16.9-20.3-27 1.1-52.9 1.1-79.9 0-13.5-1.1-18 5.6-21.4 18-11.3 55.1-23.6 111.4-36 166.6-9 39.4-19.1 76.5-41.6 111.4-9 13.5-19.1 24.8-33.8 30.4-16.9 6.8-24.8 3.4-30.4-14.6-4.5-15.8-3.4-31.5 0-47.3 12.4-58.5 25.9-117 38.3-175.6 4.5-22.5 10.1-43.9 14.6-66.4 3.4-20.3 1.1-22.5-16.9-22.5-25.9 0-51.8 1.1-78.8 0-14.6-1.1-19.1 4.5-22.5 18-15.8 74.3-32.6 149.7-49.5 224-7.9 34.9-30.4 63-58.5 84.4-16.9 13.5-28.1 7.9-31.5-13.5-1.1-10.1-1.1-20.3 1.1-30.4 10.1-49.5 20.3-99 30.4-147.4 7.9-37.1 15.8-75.4 23.6-112.5 4.5-21.4 4.5-21.4-16.9-21.4h-57.4c-7.9 0-15.8 0-23.6 1.1-10.1 1.1-5.6 14.6-13.5 19.1-15.8-20.3-37.1-29.3-61.9-30.4-32.6-1.1-61.9 7.9-90 24.8-92.3 57.4-155.3 210.5-128.3 316.2 6.8 27 18 51.8 41.6 67.5v1.1h1.1c2.3 1.1 4.5 3.4 6.8 4.5 3.4 5.6 7.9 10.1 13.5 12.4 40.5 18 90 10.1 122.7-20.3 12.4-11.3 24.8-21.4 37.1-31.5 3.4 11.3 10.1 20.3 16.9 29.3 0 2.3 0 2.3 2.3 1.1l3.4 3.4v1.1h1.1l3.4 3.4c-1.1 5.6 4.5 6.8 7.9 9 38.3 24.8 75.4 16.9 111.4-4.5 21.4-12.4 37.1-30.4 54-48.4 23.6 45 46.1 57.4 96.8 52.9 30.4-2.3 55.1-16.9 78.8-34.9-2.3 15.8-4.5 31.5-7.9 46.1-6.8 30.4-23.6 45-55.1 43.9-23.6 0-47.3-3.4-70.9-3.4-33.8-1.1-59.6 12.4-76.5 42.8-12.4-4.5-20.3 0-23.6 12.4-1.1 5.6-3.4 10.1-5.6 14.6-4.5 11.3-15.8 12.4-22.5 10.1-7.9-2.3 0-11.3 2.3-15.8 5.6-13.5 11.3-25.9 15.8-39.4 2.3-6.8 5.6-14.6-5.6-16.9 1.1-7.9 0-11.3-10.1-9-73.2 18-147.4 14.6-220.6 5.6-66.4-7.9-132.8-16.9-200.3-12.4-10.1-1.1-12.4-5.6-10.1-14.6C315 667 352.1 490.3 390.4 314.8c2.3-11.3 3.4-20.3-2.3-30.4 0-9-6.8-6.8-12.4-6.8h-126c-9 0-13.5 2.3-11.3 12.4 2.3 18 0 34.9-3.4 52.9-25.9 141.8-59.6 281.4-87.8 422-11.3 55.1-23.6 110.3-36 166.6-4.5 22.5-4.5 21.4 18 19.1 56.3-5.6 112.5-3.4 167.7-5.6 4.5 7.9 12.4 10.1 21.4 10.1l37.1 3.4c-40.5 1.1-81 6.8-121.5 10.1-21.4 1.1-41.6 7.9-59.6 19.1-37.1 22.5-68.7 51.8-92.3 88.9-32.1-77.2-52.3-157.1-67-240.4C2.7 767.5-3 697.8 1.5 628c5.6-102.4 24.8-202.6 75.4-293.7 10.1-18 28.1-25.9 45-34.9 40.5-24.8 85.5-40.5 130.5-56.3 36-9 72-15.8 109.2-18 91.2-5.6 181.2 3.4 270.1 20.3 72 13.5 141.8 31.5 213.8 45 68.7 14.6 137.3 31.5 207.1 39.4 55.1 6.8 109.2 10.1 164.3 11.3-2.3 11.3-5.6 21.4-7.9 32.6-3.4 1.1-4.5 3.4-3.4 6.8-1.1 2.3-2.3 4.5-4.5 6.8h-1.1v1.1c-1.1 1.1-2.3 2.3-2.3 3.4 5.6 12.4 16.9 14.6 28.1 12.4 28.1-4.5 54-14.6 68.7-40.5 11.4-20.4 21.5-39.6 46.3-45.2zm-180.1 483.9l1.1 1.1c2.3 6.8 7.9 7.9 13.5 10.1 28.1 14.6 59.6 14.6 90 12.4 46.1-3.4 90-14.6 124.9-47.3 38.3-36 51.8-90 30.4-129.4-2.3-6.8-4.5-12.4-9-18-22.5-33.8-52.9-59.6-83.3-85.5-12.4-10.1-25.9-21.4-31.5-37.1 14.6-46.1 43.9-58.5 83.3-36 45 24.8 81 9 93.4-41.6 0 0-3.4-1.1-4.5-2.3 2.3-11.3-3.4-16.9-13.5-20.3-67.5-20.3-133.9-22.5-196.9 14.6-39.4 22.5-66.4 56.3-67.5 105.8-1.1 49.5 27 81 61.9 110.3 16.9 14.6 34.9 28.1 50.6 43.9 18 18 20.3 41.6 9 57.4-11.3 15.8-38.3 22.5-59.6 12.4-11.3-4.5-21.4-11.3-31.5-16.9-28.1-14.6-51.8-11.3-73.2 10.1-28.1 27-27 33.8 5.6 55.1 2.3 1.2 4.6 2.3 6.8 1.2z" fill="url(#SVGID_4_)"/><linearGradient id="SVGID_5_" gradientUnits="userSpaceOnUse" x1="129.922" y1="920.957" x2="263.322" y2="920.957" gradientTransform="matrix(11.2542 0 0 -11.2542 -1380.715 11344.853)"><stop offset=".006" stop-color="#a68904"/><stop offset=".253" stop-color="#fffad2"/><stop offset=".316" stop-color="#e9d497"/><stop offset=".403" stop-color="#caa750"/><stop offset=".467" stop-color="#b88e26"/><stop offset=".499" stop-color="#b18516"/><stop offset=".639" stop-color="#d8bb70"/><stop offset=".774" stop-color="#fffad2"/><stop offset=".882" stop-color="#8f853b"/><stop offset="1" stop-color="#cebd7b"/></linearGradient><path d="M101.7 1119.8S153.5 987 404.4 953.2c251-33.8 601 18 601 18s468.2 84.4 577.3-106.9l-2.3-23.6s-93.4 167.7-548.1 96.8-827.2-50.6-951 135.1l20.4 47.2z" fill="url(#SVGID_5_)"/><linearGradient id="SVGID_6_" gradientUnits="userSpaceOnUse" x1="133.515" y1="925.6" x2="187.746" y2="925.6" gradientTransform="matrix(11.2542 0 0 -11.2542 -1380.715 11344.853)"><stop offset=".006" stop-color="#dbb200"/><stop offset=".253" stop-color="#fffad2"/><stop offset=".316" stop-color="#e9d497"/><stop offset=".403" stop-color="#caa750"/><stop offset=".467" stop-color="#b88e26"/><stop offset=".499" stop-color="#b18516"/><stop offset=".794" stop-color="#c8b166"/><stop offset=".871" stop-color="#cebd7b"/><stop offset="1" stop-color="#fffad2"/></linearGradient><path d="M721.8 875.6c-2.3 0-4.5 1.1-6.8 1.1-5.6 13.5-11.3 25.9-16.9 39.4-14.6 34.9-41.6 48.4-76.5 50.6-46.1 2.3-92.3 1.1-138.4-6.8-50.6-7.9-101.3-13.5-151.9-19.1-11.3-1.1-23.6-3.4-34.9 1.1-56.3 3.4-112.5 0-167.7 5.6h-4.5c-3.4 15.8-1.1 15.8 19.1 13.5 56.3-5.6 112.5-3.4 167.7-5.6 11.3-4.5 23.6-2.3 34.9-1.1 50.6 5.6 101.3 11.3 151.9 19.1 46.1 6.8 92.3 9 138.4 6.8 34.9-1.1 63-15.8 76.5-50.6 6.8-15.8 12.4-30.4 19.1-46.1 1.3-6.8-1-10.2-10-7.9z" fill="url(#SVGID_6_)"/><linearGradient id="SVGID_7_" gradientUnits="userSpaceOnUse" x1="146.304" y1="957.2" x2="158.319" y2="957.2" gradientTransform="matrix(11.2542 0 0 -11.2542 -1380.715 11344.853)"><stop offset=".006" stop-color="#dbb200"/><stop offset=".253" stop-color="#fffad2"/><stop offset=".316" stop-color="#e9d497"/><stop offset=".403" stop-color="#caa750"/><stop offset=".467" stop-color="#b88e26"/><stop offset=".499" stop-color="#b18516"/><stop offset=".794" stop-color="#c8b166"/><stop offset=".871" stop-color="#cebd7b"/><stop offset="1" stop-color="#fffad2"/></linearGradient><path d="M344.8 473.8c-25.9 120.4-51.8 242-76.5 362.4-3.4 16.9-2.3 20.3 13.5 19.1 0-1.1 1.1-3.4 1.1-4.5 25.9-120.4 50.6-242 76.5-362.4 13.5-64.1 25.9-128.3 42.8-192.4 0-7.9-6.8-6.8-12.4-6.8h-4.5c-15.7 60.8-28.1 122.7-40.5 184.6z" fill="url(#SVGID_7_)"/><linearGradient id="SVGID_8_" gradientUnits="userSpaceOnUse" x1="230.207" y1="975.27" x2="238.867" y2="975.27" gradientTransform="matrix(11.2542 0 0 -11.2542 -1380.715 11344.853)"><stop offset=".006" stop-color="#dbb200"/><stop offset=".253" stop-color="#fffad2"/><stop offset=".316" stop-color="#e9d497"/><stop offset=".403" stop-color="#caa750"/><stop offset=".467" stop-color="#b88e26"/><stop offset=".499" stop-color="#b18516"/><stop offset=".794" stop-color="#c8b166"/><stop offset=".871" stop-color="#cebd7b"/><stop offset="1" stop-color="#fffad2"/></linearGradient><path d="M1302.5 332h-11.3c-10.1 27-41.6 56.3-73.2 59.6h-1.1l-3.4 6.8c1.1 1.1 1.1 2.3-1.1 1.1-1.1 1.1-1.1 2.3-2.3 3.4 39.4 14.6 86.7-25.9 96.8-60.8 1.3-4.5.1-10.1-4.4-10.1z" fill="url(#SVGID_8_)"/><linearGradient id="SVGID_9_" gradientUnits="userSpaceOnUse" x1="224.483" y1="944.834" x2="250.62" y2="944.834" gradientTransform="matrix(11.2542 0 0 -11.2542 -1380.715 11344.853)"><stop offset=".006" stop-color="#dbb200"/><stop offset=".253" stop-color="#fffad2"/><stop offset=".316" stop-color="#e9d497"/><stop offset=".403" stop-color="#caa750"/><stop offset=".467" stop-color="#b88e26"/><stop offset=".499" stop-color="#b18516"/><stop offset=".794" stop-color="#c8b166"/><stop offset=".871" stop-color="#cebd7b"/><stop offset="1" stop-color="#fffad2"/></linearGradient><path d="M1427.4 643.7c-12.4-18-27-34.9-42.8-49.5 10.1 11.3 20.3 22.5 28.1 34.9 3.4 5.6 6.8 11.3 9 18 6.8 28.1 2.3 54-10.1 78.8-29.3 57.4-79.9 81-141.8 86.7-36 3.4-73.2 2.3-108-10.1l-1.1-1.1c-1.1-3.4-3.4-3.4-5.6-2.3l-10.1-6.8c2.3 6.8 11.3 12.4 24.8 21.4 2.3-1.1 4.5 0 5.6 2.3l1.1 1.1c34.9 12.4 70.9 13.5 108 10.1 60.8-5.6 111.4-29.3 141.8-86.7 12.4-24.8 16.9-50.6 10.1-78.8-2.2-6.7-4.5-12.3-9-18z" fill="url(#SVGID_9_)"/><linearGradient id="SVGID_10_" gradientUnits="userSpaceOnUse" x1="232.966" y1="949.957" x2="239.128" y2="949.957" gradientTransform="matrix(11.2542 0 0 -11.2542 -1380.715 11344.853)"><stop offset=".006" stop-color="#dbb200"/><stop offset=".253" stop-color="#fffad2"/><stop offset=".316" stop-color="#e9d497"/><stop offset=".403" stop-color="#caa750"/><stop offset=".467" stop-color="#b88e26"/><stop offset=".499" stop-color="#b18516"/><stop offset=".794" stop-color="#c8b166"/><stop offset=".871" stop-color="#cebd7b"/><stop offset="1" stop-color="#fffad2"/></linearGradient><path d="M1254.1 634.7c-4.5-3.4-9-7.9-13.5-11.3 7.9 9 18 18 28.1 25.9 13.5 11.3 28.1 22.5 41.6 34.9-1.1-2.3-3.4-3.4-4.5-5.6-15.7-15.7-33.7-29.2-51.7-43.9z" fill="url(#SVGID_10_)"/><linearGradient id="SVGID_11_" gradientUnits="userSpaceOnUse" x1="237.541" y1="965.507" x2="254.692" y2="965.507" gradientTransform="matrix(11.2542 0 0 -11.2542 -1380.715 11344.853)"><stop offset=".006" stop-color="#dbb200"/><stop offset=".253" stop-color="#fffad2"/><stop offset=".316" stop-color="#e9d497"/><stop offset=".403" stop-color="#caa750"/><stop offset=".467" stop-color="#b88e26"/><stop offset=".499" stop-color="#b18516"/><stop offset=".794" stop-color="#c8b166"/><stop offset=".871" stop-color="#cebd7b"/><stop offset="1" stop-color="#fffad2"/></linearGradient><path d="M1471.3 419.8v6.8c-6.8 0-9 5.6-10.1 10.1-19.1 45-57.4 40.5-86.7 21.4-7.9-4.5-15.8-9-24.8-10.1-19.1-2.3-34.9 3.4-47.3 18-9 12.4-15.8 25.9-3.4 40.5 4.5 13.5 13.5 22.5 23.6 31.5-4.5-4.5-7.9-10.1-10.1-16.9-11.3-14.6-5.6-28.1 3.4-40.5 11.3-15.8 28.1-20.3 47.3-18 9 1.1 16.9 5.6 24.8 10.1 28.1 18 66.4 23.6 86.7-21.4 2.3-4.5 3.4-10.1 10.1-10.1 2.3-12.4-2.2-18-13.5-21.4z" fill="url(#SVGID_11_)"/><linearGradient id="SVGID_12_" gradientUnits="userSpaceOnUse" x1="165.705" y1="955.51" x2="177.63" y2="955.51" gradientTransform="matrix(11.2542 0 0 -11.2542 -1380.715 11344.853)"><stop offset=".006" stop-color="#dbb200"/><stop offset=".253" stop-color="#fffad2"/><stop offset=".316" stop-color="#e9d497"/><stop offset=".403" stop-color="#caa750"/><stop offset=".467" stop-color="#b88e26"/><stop offset=".499" stop-color="#b18516"/><stop offset=".794" stop-color="#c8b166"/><stop offset=".871" stop-color="#cebd7b"/><stop offset="1" stop-color="#fffad2"/></linearGradient><path d="M610.4 465.9c-2.3-9-10.1-9-16.9-9-22.5-1.1-38.3 12.4-49.5 29.3-38.3 56.3-56.3 119.3-58.5 186.8 0 12.4-4.5 28.1 9 39.4 3.4 6.8 7.9 11.3 13.5 13.5-12.4-10.1-7.9-25.9-7.9-38.3 2.3-67.5 20.3-130.5 58.5-186.8 11.3-16.9 27-30.4 49.5-29.3 3.4 0 7.9 0 11.3 2.3-3.4-3.4-5.6-5.6-9-7.9z" fill="url(#SVGID_12_)"/><linearGradient id="SVGID_13_" gradientUnits="userSpaceOnUse" x1="158.961" y1="937.787" x2="175.661" y2="937.787" gradientTransform="matrix(11.2542 0 0 -11.2542 -1380.715 11344.853)"><stop offset=".006" stop-color="#dbb200"/><stop offset=".253" stop-color="#fffad2"/><stop offset=".316" stop-color="#e9d497"/><stop offset=".403" stop-color="#caa750"/><stop offset=".467" stop-color="#b88e26"/><stop offset=".499" stop-color="#b18516"/><stop offset=".794" stop-color="#c8b166"/><stop offset=".871" stop-color="#cebd7b"/><stop offset="1" stop-color="#fffad2"/></linearGradient><path d="M426.9 812.6c1.1 0 1.1 1.1 1.1 1.1 2.3 1.1 4.5 3.4 6.8 4.5 14.6 2.3 28.1 9 42.8 10.1 47.3 2.3 83.3-18 112.5-52.9l5.6-5.6c0-1.1-1.1-2.3-1.1-3.4-2.3-18-9-15.8-19.1-4.5-29.3 33.8-65.3 55.1-112.5 52.9-14.6-1.1-28.1-7.9-42.8-10.1-2.3-1.1-4.5-3.4-6.8-4.5h-1.1V799c-2.3-1.1-3.4-2.3-4.5-3.4 5.6 5.7 12.4 11.3 19.1 17z" fill="url(#SVGID_13_)"/><linearGradient id="SVGID_14_" gradientUnits="userSpaceOnUse" x1="177.957" y1="938.207" x2="193.524" y2="938.207" gradientTransform="matrix(11.2542 0 0 -11.2542 -1380.715 11344.853)"><stop offset=".006" stop-color="#dbb200"/><stop offset=".253" stop-color="#fffad2"/><stop offset=".316" stop-color="#e9d497"/><stop offset=".403" stop-color="#caa750"/><stop offset=".467" stop-color="#b88e26"/><stop offset=".499" stop-color="#b18516"/><stop offset=".794" stop-color="#c8b166"/><stop offset=".871" stop-color="#cebd7b"/><stop offset="1" stop-color="#fffad2"/></linearGradient><path d="M792.7 768.7c1.1-1.1 2.3-3.4 4.5-5.6-1.1-1.1-2.3-3.4-2.3-5.6 1.1-5.6-1.1-10.1-4.5-12.4-4.5-1.1-7.9 4.5-10.1 7.9-45 50.6-93.4 75.4-156.4 48.4 1.1 2.3 2.3 3.4 4.5 5.6 2.3-1.1 2.3 0 2.3 1.1l3.4 3.4 3.4 3.4c60.7 29.2 110.2 4.4 155.2-46.2z" fill="url(#SVGID_14_)"/><linearGradient id="SVGID_15_" gradientUnits="userSpaceOnUse" x1="189.983" y1="946.427" x2="227.934" y2="946.427" gradientTransform="matrix(11.2542 0 0 -11.2542 -1380.715 11344.853)"><stop offset=".006" stop-color="#dbb200"/><stop offset=".253" stop-color="#fffad2"/><stop offset=".316" stop-color="#e9d497"/><stop offset=".403" stop-color="#caa750"/><stop offset=".467" stop-color="#b88e26"/><stop offset=".499" stop-color="#b18516"/><stop offset=".794" stop-color="#c8b166"/><stop offset=".871" stop-color="#cebd7b"/><stop offset="1" stop-color="#fffad2"/></linearGradient><path d="M1151.7 570.6c1.1-3.4 1.1-6.8 2.3-9 2.3-7.9 2.3-13.5 4.5-21.4l16.9-70.9c2.3-11.3 6.8-22.5 7.9-34.9 1.1-11.3 0-19.1-13.5-20.3v5.6c-2.3 11.3-5.6 22.5-7.9 34.9l-16.9 70.9c-2.3 6.8-4.5 12.4-6.8 21.4-1.1 3.4-1.1 6.8-2.3 10.1-3.4 15.8-5.6 23.6-7.9 34.9-16.9 78.8-31.5 158.7-51.8 237.5-16.9 68.7-56.3 114.8-139.6 117-41.6 1.1-84.4-1.1-126-1.1-15.8 0-31.5 4.5-47.3 9-1.1 2.3-2.3 3.4-2.3 5.6-2.3 3.4-5.6 6.8-1.1 11.3 3.4 3.4 6.8 1.1 11.3 0 18-5.6 34.9-12.4 54-11.3 41.6 0 84.4 2.3 126 1.1 83.3-2.3 122.7-48.4 139.6-117 20.3-78.8 34.9-157.6 51.8-237.5 2.4-12.3 5.7-24.7 9.1-35.9z" fill="url(#SVGID_15_)"/><linearGradient id="SVGID_16_" gradientUnits="userSpaceOnUse" x1="185.271" y1="957.107" x2="191.78" y2="957.107" gradientTransform="matrix(11.2542 0 0 -11.2542 -1380.715 11344.853)"><stop offset=".006" stop-color="#dbb200"/><stop offset=".253" stop-color="#fffad2"/><stop offset=".316" stop-color="#e9d497"/><stop offset=".403" stop-color="#caa750"/><stop offset=".467" stop-color="#b88e26"/><stop offset=".499" stop-color="#b18516"/><stop offset=".794" stop-color="#c8b166"/><stop offset=".871" stop-color="#cebd7b"/><stop offset="1" stop-color="#fffad2"/></linearGradient><path d="M761.2 422c-7.9 37.1-15.8 75.4-23.6 112.5-10.1 49.5-20.3 99-30.4 147.4-2.3 10.1-3.4 20.3-1.1 30.4 2.3 13.5 7.9 20.3 15.8 20.3-1.1-2.3-1.1-4.5-1.1-6.8-1.1-10.1-1.1-20.3 1.1-30.4 10.1-49.5 20.3-99 30.4-147.4 7.9-37.1 15.8-75.4 23.6-112.5 4.5-19.1 4.5-21.4-12.4-21.4-1.2 2.3-2.3 4.6-2.3 7.9z" fill="url(#SVGID_16_)"/><linearGradient id="SVGID_17_" gradientUnits="userSpaceOnUse" x1="195.958" y1="936.87" x2="208.871" y2="936.87" gradientTransform="matrix(11.2542 0 0 -11.2542 -1380.715 11344.853)"><stop offset=".006" stop-color="#dbb200"/><stop offset=".253" stop-color="#fffad2"/><stop offset=".316" stop-color="#e9d497"/><stop offset=".403" stop-color="#caa750"/><stop offset=".467" stop-color="#b88e26"/><stop offset=".499" stop-color="#b18516"/><stop offset=".794" stop-color="#c8b166"/><stop offset=".871" stop-color="#cebd7b"/><stop offset="1" stop-color="#fffad2"/></linearGradient><path d="M824.2 797.9c19.1 23.6 41.6 30.4 81 27 22.5-2.3 42.8-10.1 60.8-21.4 1.1-9 2.3-18 4.5-27-23.6 18-48.4 32.6-78.8 34.9-30.3 2.3-50.6-1.1-67.5-13.5z" fill="url(#SVGID_17_)"/><linearGradient id="SVGID_18_" gradientUnits="userSpaceOnUse" x1="203.245" y1="957.157" x2="209.665" y2="957.157" gradientTransform="matrix(11.2542 0 0 -11.2542 -1380.715 11344.853)"><stop offset=".006" stop-color="#dbb200"/><stop offset=".253" stop-color="#fffad2"/><stop offset=".316" stop-color="#e9d497"/><stop offset=".403" stop-color="#caa750"/><stop offset=".467" stop-color="#b88e26"/><stop offset=".499" stop-color="#b18516"/><stop offset=".794" stop-color="#c8b166"/><stop offset=".871" stop-color="#cebd7b"/><stop offset="1" stop-color="#fffad2"/></linearGradient><path d="M962.6 423.2c-4.5 22.5-10.1 43.9-14.6 66.4-12.4 58.5-25.9 117-38.3 175.6-3.4 15.8-5.6 31.5 0 47.3 3.4 11.3 7.9 16.9 15.8 18 0-1.1-1.1-2.3-1.1-3.4-4.5-15.8-3.4-31.5 0-47.3 12.4-58.5 25.9-117 38.3-175.6 4.5-22.5 10.1-43.9 14.6-66.4 3.4-18 1.1-21.4-13.5-22.5 0 1.1 0 4.5-1.2 7.9z" fill="url(#SVGID_18_)"/><path class="st18" d="M1138.2 557.1c-3.4 12.4-6.8 23.6-10.1 34.9-16.9 78.8-31.5 158.7-51.8 237.5-16.9 68.7-56.3 114.8-139.6 117-41.6 1.1-84.4-1.1-126-1.1-19.1 0-36 6.8-54 11.3-4.5 1.1-7.9 3.4-11.3 0-4.5-4.5 0-6.8 1.1-11.3 5.6-12.4 11.3-25.9 14.6-39.4 15.8-30.4 42.8-42.8 76.5-42.8 23.6 0 47.3 3.4 70.9 3.4 31.5 0 48.4-13.5 55.1-43.9 3.4-14.6 4.5-30.4 7.9-46.1-23.6 18-48.4 32.6-78.8 34.9-50.6 4.5-73.2-7.9-96.8-52.9 1.1-5.6-1.1-10.1-4.5-12.4-4.5-1.1-7.9 4.5-10.1 7.9-45 50.6-94.5 75.4-158.7 48.4l-3.4-3.4-3.4-3.4c0-1.1 0-2.3-2.3-1.1-6.8-9-13.5-18-16.9-29.3-2.3-18-9-15.8-19.1-4.5-29.3 33.8-65.3 55.1-112.5 52.9-14.6-1.1-28.1-7.9-42.8-10.1-2.3-1.1-4.5-3.4-6.8-4.5V798h-1.1c-23.6-16.9-34.9-40.5-41.6-67.5-27-105.8 34.9-258.8 128.3-316.2 27-16.9 57.4-25.9 90-24.8 24.8 1.1 46.1 10.1 61.9 30.4 7.9-4.5 3.4-18 13.5-19.1 7.9-1.1 15.8-1.1 23.6-1.1h57.4c20.3 0 21.4 0 16.9 21.4-7.9 37.1-15.8 75.4-23.6 112.5-10.1 49.5-20.3 99-30.4 147.4-2.3 10.1-3.4 20.3-1.1 30.4 3.4 21.4 14.6 27 31.5 13.5 28.1-21.4 49.5-49.5 58.5-84.4 18-74.3 33.8-148.6 49.5-224 3.4-13.5 7.9-19.1 22.5-18 25.9 1.1 51.8 0 78.8 0 18 0 21.4 2.3 16.9 22.5-4.5 22.5-10.1 43.9-14.6 66.4-12.4 58.5-25.9 117-38.3 175.6-3.4 15.8-5.6 31.5 0 47.3 5.6 18 13.5 21.4 30.4 14.6 14.6-5.6 24.8-18 33.8-30.4 22.5-33.8 32.6-72 41.6-111.4 12.4-55.1 24.8-111.4 36-166.6 2.3-12.4 6.8-18 21.4-18 27 1.1 52.9 1.1 79.9 0 16.9-1.1 19.1 7.9 16.9 20.3-2.3 11.3-5.6 22.5-7.9 34.9l-16.9 70.9c-2.3 7.9-3.4 13.5-4.5 21.4-5.4 5.5-6.5 7.7-6.5 11.1zM493.3 713.5c9 14.6 20.3 19.1 37.1 12.4 28.1-10.1 40.5-33.8 51.8-57.4 24.8-50.6 34.9-104.7 43.9-159.8 2.3-15.8 0-31.5-16.9-41.6-2.3-9-10.1-9-16.9-9-22.5-1.1-38.3 12.4-49.5 29.3-38.3 56.3-56.3 119.3-58.5 186.8 0 12.3-3.3 28.1 9 39.3z"/><path class="st18" d="M720.7 872.2c-6.8 15.8-12.4 30.4-19.1 46.1-14.6 34.9-41.6 48.4-76.5 50.6-46.1 2.3-92.3 1.1-138.4-6.8-50.6-7.9-101.3-13.5-151.9-19.1-11.3-1.1-23.6-3.4-34.9 1.1-56.3 3.4-112.5 0-167.7 5.6-22.5 2.3-22.5 2.3-18-19.1 11.3-55.1 24.8-110.3 36-166.6 29.3-140.7 61.9-281.4 87.8-422 3.4-18 5.6-34.9 3.4-52.9-1.1-10.1 2.3-12.4 11.3-12.4h126c4.5 0 11.3-2.3 12.4 6.8-16.9 63-28.1 128.3-42.8 192.4-25.9 120.4-51.8 242-76.5 362.4-4.5 19.1-2.3 20.3 19.1 19.1 67.5-4.5 133.9 5.6 200.3 12.4 74.3 7.9 147.4 12.4 220.6-5.6 8.9-4.4 11.1-1 8.9 8zm578.4-364.6c5.6 16.9 19.1 27 31.5 37.1 30.4 25.9 60.8 51.8 83.3 85.5 3.4 5.6 6.8 11.3 9 18 6.8 28.1 2.3 54-10.1 78.8-29.3 57.4-79.9 81-141.8 86.7-36 3.4-73.2 2.3-108-10.1l-1.1-1.1c-1.1-3.4-3.4-3.4-5.6-2.3-32.6-20.3-33.8-27-5.6-55.1 21.4-21.4 45-24.8 73.2-10.1 10.1 5.6 20.3 12.4 31.5 16.9 21.4 9 48.4 3.4 59.6-12.4 12.4-15.8 9-39.4-9-57.4-15.8-15.8-33.8-29.3-50.6-43.9-34.9-29.3-63-60.8-61.9-110.3s27-82.2 67.5-105.8c63-36 129.4-33.8 196.9-14.6 11.3 3.4 15.8 9 13.5 20.3-6.8 0-9 5.6-10.1 10.1-19.1 45-57.4 40.5-86.7 21.4-7.9-4.5-15.8-9-24.8-10.1-19.1-2.3-34.9 3.4-47.3 18-9 12.2-14.6 25.7-3.4 40.4z"/><path class="st19" d="M289.6 856.4c-21.4 1.1-22.5 0-19.1-19.1 25.9-120.4 50.6-242 76.5-362.4 13.5-64.1 25.9-128.3 42.8-192.4 5.6 10.1 5.6 19.1 2.3 30.4-38.3 175.6-75.4 352.3-113.7 527.8 0 10.1 1.1 14.6 11.2 15.7z"/><path class="st18" d="M1218.1 341c9-4.5 2.3-20.3 13.5-20.3 20.3-1.1 40.5 0 59.6 0 4.5 0 5.6 5.6 4.5 10.1-11.3 33.8-57.4 74.3-96.8 60.8 1.1-1.1 2.3-2.3 2.3-3.4 2.3 1.1 1.1 0 1.1-1.1l3.4-6.8c3.4-1.1 4.5-3.4 3.4-6.8 4.5-11.1 6.8-22.4 9-32.5z"/><path class="st19" d="M1210.2 372.5c0 3.4 0 5.6-3.4 6.8.1-2.3 1.2-4.5 3.4-6.8zm-6.7 13.5c1.1 1.1 1.1 2.3-1.1 1.1V386h1.1zm-592 408.5c2.3-1.1 2.3 0 2.3 1.1-2.3 1.2-2.3 1.2-2.3-1.1zm544.7 4.5c2.3-1.1 4.5 0 5.6 2.3-3.3 2.2-5.6 1.1-5.6-2.3zm-742.8 0h1.1v1.1h-1.1V799zm203.7 1.2H616h1.1z"/><path d="M610.4 467c15.8 10.1 19.1 25.9 16.9 41.6-7.9 55.1-19.1 109.2-43.9 159.8-11.3 23.6-24.8 47.3-51.8 57.4-16.9 5.6-28.1 2.3-37.1-12.4 0-10.1-1.1-20.3-1.1-30.4 2.3-59.6 20.3-114.8 47.3-167.7 14.5-28 35.9-47.1 69.7-48.3z" fill="#c71d1f"/><path d="M626.1 808.1c2.3-1.1 2.3 0 2.3 1.1-2.3 1.1-2.3 0-2.3-1.1zm-199.2 4.5h1.1v1.1h-1.1v-1.1zm204.9 0l-1.1 1.1 1.1-1.1zm-20.3-19.2c2.3-1.1 2.3 0 2.3 1.1-2.3 2.3-2.3 1.2-2.3-1.1zm-198.1 4.5h1.1v1.1l-1.1 1.1v-2.2zm203.7 1.1H616h1.1z" fill="#bea05e"/></svg>