<svg viewBox="0 0 80 58" fill="none" xmlns="http://www.w3.org/2000/svg"><path opacity=".9" d="M77.644 9.199c-.912-3.487-3.582-6.237-6.968-7.176C64.489.28 39.742.28 39.742.28S14.994.28 8.807 1.956C5.486 2.895 2.751 5.712 1.84 9.2.211 15.569.211 28.78.211 28.78s0 13.278 1.628 19.582c.912 3.487 3.582 6.236 6.968 7.175 6.252 1.744 30.935 1.744 30.935 1.744s24.747 0 30.934-1.677c3.386-.939 6.056-3.688 6.968-7.175 1.628-6.371 1.628-19.582 1.628-19.582s.065-13.278-1.628-19.65z" fill="#E52529"/><path d="M31.863 40.985l20.58-12.205-20.58-12.205v24.41z" fill="#fff"/></svg>