<svg width="222" height="71" fill="none" xmlns="http://www.w3.org/2000/svg"><g filter="url(#filter0_d)" fill-rule="evenodd" clip-rule="evenodd"><g clip-path="url(#clip0)"><path d="M111.004 36.606a9.778 9.778 0 01-6.945-2.878l-16.96-16.96a9.779 9.779 0 01-2.878-6.945 9.779 9.779 0 012.877-6.945A9.779 9.779 0 0194.043 0a9.778 9.778 0 016.945 2.878l10.016 10.016 10.015-10.016A9.743 9.743 0 01127.948 0a9.778 9.778 0 016.945 2.878 9.778 9.778 0 012.878 6.945 9.778 9.778 0 01-2.878 6.945l-16.944 16.96c-1.865 1.85-4.325 2.878-6.945 2.878z" fill="#FFE504"/><path d="M111.007 33.39a6.619 6.619 0 01-4.678-1.929l-16.96-16.976a6.552 6.552 0 01-1.93-4.679c0-1.768.692-3.408 1.93-4.662a6.552 6.552 0 014.678-1.929c1.768 0 3.424.691 4.678 1.93l12.282 12.282L123.29 5.144a6.549 6.549 0 014.678-1.929 6.62 6.62 0 014.678 1.93 6.551 6.551 0 011.929 4.677 6.618 6.618 0 01-1.929 4.679l-16.977 16.944a6.527 6.527 0 01-4.662 1.945z" fill="#FBB800"/><path d="M91.651 7.428a3.396 3.396 0 014.79 0l14.55 14.549 14.549-14.55a3.396 3.396 0 014.791 0 3.397 3.397 0 010 4.791l-16.929 16.96a3.395 3.395 0 01-4.79 0l-16.96-16.96a3.367 3.367 0 010-4.79z" fill="#fff"/></g><g opacity=".8" clip-path="url(#clip1)"><path d="M179.232 36.606a9.78 9.78 0 01-6.945-2.878l-16.96-16.96a9.778 9.778 0 01-2.878-6.945 9.778 9.778 0 012.878-6.945A9.778 9.778 0 01162.272 0a9.78 9.78 0 016.945 2.878l10.015 10.016 10.016-10.016A9.741 9.741 0 01196.177 0a9.78 9.78 0 016.945 2.878 9.781 9.781 0 012.877 6.945 9.781 9.781 0 01-2.877 6.945l-16.945 16.96c-1.865 1.85-4.324 2.878-6.945 2.878z" fill="#FFE504"/><path d="M179.234 33.39a6.617 6.617 0 01-4.678-1.929l-16.961-16.976a6.552 6.552 0 01-1.929-4.679 6.58 6.58 0 011.929-4.662 6.552 6.552 0 014.678-1.929 6.62 6.62 0 014.679 1.93l12.282 12.282 12.282-12.283a6.552 6.552 0 014.678-1.929c1.769 0 3.425.691 4.678 1.93a6.552 6.552 0 011.93 4.677 6.619 6.619 0 01-1.93 4.679l-16.976 16.944a6.53 6.53 0 01-4.662 1.945z" fill="#FBB800"/><path d="M159.878 7.428a3.395 3.395 0 014.79 0l14.549 14.549 14.549-14.55a3.396 3.396 0 014.791 0 3.397 3.397 0 010 4.791l-16.928 16.96a3.396 3.396 0 01-4.791 0l-16.96-16.96a3.366 3.366 0 010-4.79z" fill="#fff"/></g><g opacity=".8" clip-path="url(#clip2)"><path d="M42.777 36.606a9.779 9.779 0 01-6.945-2.878l-16.96-16.96a9.779 9.779 0 01-2.878-6.945 9.779 9.779 0 012.878-6.945A9.779 9.779 0 0125.817 0a9.779 9.779 0 016.945 2.878l10.015 10.015L52.793 2.878A9.742 9.742 0 0159.722 0a9.779 9.779 0 016.944 2.878 9.779 9.779 0 012.878 6.945 9.779 9.779 0 01-2.877 6.944L49.721 33.728c-1.865 1.849-4.324 2.878-6.945 2.878z" fill="#FFE504"/><path d="M42.775 33.39a6.619 6.619 0 01-4.678-1.929l-16.96-16.976a6.552 6.552 0 01-1.93-4.678c0-1.769.691-3.409 1.93-4.663a6.552 6.552 0 014.677-1.929 6.62 6.62 0 014.679 1.93l12.282 12.282L55.057 5.144a6.552 6.552 0 014.678-1.929c1.769 0 3.425.692 4.678 1.93a6.552 6.552 0 011.93 4.678 6.619 6.619 0 01-1.93 4.678L47.438 31.445a6.53 6.53 0 01-4.662 1.946z" fill="#FBB800"/><path d="M23.42 7.428a3.396 3.396 0 014.791 0l14.55 14.55 14.548-14.55a3.396 3.396 0 014.791 0 3.396 3.396 0 010 4.79L45.172 29.18a3.396 3.396 0 01-4.79 0L23.42 12.22a3.367 3.367 0 010-4.79z" fill="#fff"/></g></g><defs><clipPath id="clip0"><path fill="#fff" transform="translate(84.22)" d="M0 0h53.55v36.606H0z"/></clipPath><clipPath id="clip1"><path fill="#fff" transform="translate(152.449)" d="M0 0h53.55v36.606H0z"/></clipPath><clipPath id="clip2"><path fill="#fff" transform="translate(15.994)" d="M0 0h53.55v36.606H0z"/></clipPath><filter id="filter0_d" x=".819" y="0" width="220.355" height="70.328" filterUnits="userSpaceOnUse" color-interpolation-filters="sRGB"><feFlood flood-opacity="0" result="BackgroundImageFix"/><feColorMatrix in="SourceAlpha" values="0 0 0 0 0 0 0 0 0 0 0 0 0 0 0 0 0 0 127 0"/><feOffset dy="18.547"/><feGaussianBlur stdDeviation="7.588"/><feColorMatrix values="0 0 0 0 1 0 0 0 0 0.905882 0 0 0 0 0.176471 0 0 0 0.2 0"/><feBlend in2="BackgroundImageFix" result="effect1_dropShadow"/><feBlend in="SourceGraphic" in2="effect1_dropShadow" result="shape"/></filter></defs></svg>